<svg width="250" height="250" xmlns="http://www.w3.org/2000/svg"><g fill-rule="nonzero" fill="none"><path fill="#EDEDED" d="M-.004-.003h249.996v249.996H-.004z"/><path d="M226.817 249.993H24.583c.552-10.662 1.868-21.343 3.73-31.832 2.525-14.236 5.74-35.11 18.183-44.388 7.194-5.366 16.512-7.126 24.749-10.36 4.009-1.574 7.6-3.137 10.97-4.917 11.378 12.466 26.21 18.987 43.48 18.987 17.278-.001 32.112-6.522 43.489-18.987 3.37 1.78 6.962 3.343 10.97 4.916 8.238 3.235 17.555 4.996 24.75 10.36 12.442 9.277 15.658 30.151 18.184 44.39 1.861 10.488 3.177 21.169 3.729 31.831z" fill="#D8D8D8"/><path d="M125.702 164.657c37.44-.004 50.914-37.457 54.44-68.227C184.487 58.527 166.55 30 125.702 30c-40.838 0-58.784 28.525-54.44 66.43 3.531 30.767 16.998 68.231 54.44 68.227z" fill="#D8D8D8"/></g></svg>